<?xml version="1.0" encoding="utf-8" standalone="no"?>
<!DOCTYPE svg PUBLIC "-//W3C//DTD SVG 1.1//EN"
  "http://www.w3.org/Graphics/SVG/1.1/DTD/svg11.dtd">
<!-- Created with matplotlib (https://matplotlib.org/) -->
<svg height="345.6pt" version="1.1" viewBox="0 0 460.8 345.6" width="460.8pt" xmlns="http://www.w3.org/2000/svg" xmlns:xlink="http://www.w3.org/1999/xlink">
 <defs>
  <style type="text/css">
*{stroke-linecap:butt;stroke-linejoin:round;}
  </style>
 </defs>
 <g id="figure_1">
  <g id="patch_1">
   <path d="M 0 345.6 
L 460.8 345.6 
L 460.8 0 
L 0 0 
z
" style="fill:#ffffff;"/>
  </g>
  <g id="axes_1">
   <g id="patch_2">
    <path d="M 57.6 307.584 
L 414.72 307.584 
L 414.72 41.472 
L 57.6 41.472 
z
" style="fill:#ffffff;"/>
   </g>
   <g id="matplotlib.axis_1">
    <g id="xtick_1">
     <g id="line2d_1">
      <defs>
       <path d="M 0 0 
L 0 3.5 
" id="m7447502ec6" style="stroke:#000000;stroke-width:0.8;"/>
      </defs>
      <g>
       <use style="stroke:#000000;stroke-width:0.8;" x="73.832727" xlink:href="#m7447502ec6" y="307.584"/>
      </g>
     </g>
     <g id="text_1">
      <!-- 0.000 -->
      <defs>
       <path d="M 31.78125 66.40625 
Q 24.171875 66.40625 20.328125 58.90625 
Q 16.5 51.421875 16.5 36.375 
Q 16.5 21.390625 20.328125 13.890625 
Q 24.171875 6.390625 31.78125 6.390625 
Q 39.453125 6.390625 43.28125 13.890625 
Q 47.125 21.390625 47.125 36.375 
Q 47.125 51.421875 43.28125 58.90625 
Q 39.453125 66.40625 31.78125 66.40625 
z
M 31.78125 74.21875 
Q 44.046875 74.21875 50.515625 64.515625 
Q 56.984375 54.828125 56.984375 36.375 
Q 56.984375 17.96875 50.515625 8.265625 
Q 44.046875 -1.421875 31.78125 -1.421875 
Q 19.53125 -1.421875 13.0625 8.265625 
Q 6.59375 17.96875 6.59375 36.375 
Q 6.59375 54.828125 13.0625 64.515625 
Q 19.53125 74.21875 31.78125 74.21875 
z
" id="DejaVuSans-48"/>
       <path d="M 10.6875 12.40625 
L 21 12.40625 
L 21 0 
L 10.6875 0 
z
" id="DejaVuSans-46"/>
      </defs>
      <g transform="translate(59.518665 322.182437)scale(0.1 -0.1)">
       <use xlink:href="#DejaVuSans-48"/>
       <use x="63.623047" xlink:href="#DejaVuSans-46"/>
       <use x="95.410156" xlink:href="#DejaVuSans-48"/>
       <use x="159.033203" xlink:href="#DejaVuSans-48"/>
       <use x="222.65625" xlink:href="#DejaVuSans-48"/>
      </g>
     </g>
    </g>
    <g id="xtick_2">
     <g id="line2d_2">
      <g>
       <use style="stroke:#000000;stroke-width:0.8;" x="121.669713" xlink:href="#m7447502ec6" y="307.584"/>
      </g>
     </g>
     <g id="text_2">
      <!-- 0.025 -->
      <defs>
       <path d="M 19.1875 8.296875 
L 53.609375 8.296875 
L 53.609375 0 
L 7.328125 0 
L 7.328125 8.296875 
Q 12.9375 14.109375 22.625 23.890625 
Q 32.328125 33.6875 34.8125 36.53125 
Q 39.546875 41.84375 41.421875 45.53125 
Q 43.3125 49.21875 43.3125 52.78125 
Q 43.3125 58.59375 39.234375 62.25 
Q 35.15625 65.921875 28.609375 65.921875 
Q 23.96875 65.921875 18.8125 64.3125 
Q 13.671875 62.703125 7.8125 59.421875 
L 7.8125 69.390625 
Q 13.765625 71.78125 18.9375 73 
Q 24.125 74.21875 28.421875 74.21875 
Q 39.75 74.21875 46.484375 68.546875 
Q 53.21875 62.890625 53.21875 53.421875 
Q 53.21875 48.921875 51.53125 44.890625 
Q 49.859375 40.875 45.40625 35.40625 
Q 44.1875 33.984375 37.640625 27.21875 
Q 31.109375 20.453125 19.1875 8.296875 
z
" id="DejaVuSans-50"/>
       <path d="M 10.796875 72.90625 
L 49.515625 72.90625 
L 49.515625 64.59375 
L 19.828125 64.59375 
L 19.828125 46.734375 
Q 21.96875 47.46875 24.109375 47.828125 
Q 26.265625 48.1875 28.421875 48.1875 
Q 40.625 48.1875 47.75 41.5 
Q 54.890625 34.8125 54.890625 23.390625 
Q 54.890625 11.625 47.5625 5.09375 
Q 40.234375 -1.421875 26.90625 -1.421875 
Q 22.3125 -1.421875 17.546875 -0.640625 
Q 12.796875 0.140625 7.71875 1.703125 
L 7.71875 11.625 
Q 12.109375 9.234375 16.796875 8.0625 
Q 21.484375 6.890625 26.703125 6.890625 
Q 35.15625 6.890625 40.078125 11.328125 
Q 45.015625 15.765625 45.015625 23.390625 
Q 45.015625 31 40.078125 35.4375 
Q 35.15625 39.890625 26.703125 39.890625 
Q 22.75 39.890625 18.8125 39.015625 
Q 14.890625 38.140625 10.796875 36.28125 
z
" id="DejaVuSans-53"/>
      </defs>
      <g transform="translate(107.355651 322.182437)scale(0.1 -0.1)">
       <use xlink:href="#DejaVuSans-48"/>
       <use x="63.623047" xlink:href="#DejaVuSans-46"/>
       <use x="95.410156" xlink:href="#DejaVuSans-48"/>
       <use x="159.033203" xlink:href="#DejaVuSans-50"/>
       <use x="222.65625" xlink:href="#DejaVuSans-53"/>
      </g>
     </g>
    </g>
    <g id="xtick_3">
     <g id="line2d_3">
      <g>
       <use style="stroke:#000000;stroke-width:0.8;" x="169.506699" xlink:href="#m7447502ec6" y="307.584"/>
      </g>
     </g>
     <g id="text_3">
      <!-- 0.050 -->
      <g transform="translate(155.192637 322.182437)scale(0.1 -0.1)">
       <use xlink:href="#DejaVuSans-48"/>
       <use x="63.623047" xlink:href="#DejaVuSans-46"/>
       <use x="95.410156" xlink:href="#DejaVuSans-48"/>
       <use x="159.033203" xlink:href="#DejaVuSans-53"/>
       <use x="222.65625" xlink:href="#DejaVuSans-48"/>
      </g>
     </g>
    </g>
    <g id="xtick_4">
     <g id="line2d_4">
      <g>
       <use style="stroke:#000000;stroke-width:0.8;" x="217.343686" xlink:href="#m7447502ec6" y="307.584"/>
      </g>
     </g>
     <g id="text_4">
      <!-- 0.075 -->
      <defs>
       <path d="M 8.203125 72.90625 
L 55.078125 72.90625 
L 55.078125 68.703125 
L 28.609375 0 
L 18.3125 0 
L 43.21875 64.59375 
L 8.203125 64.59375 
z
" id="DejaVuSans-55"/>
      </defs>
      <g transform="translate(203.029623 322.182437)scale(0.1 -0.1)">
       <use xlink:href="#DejaVuSans-48"/>
       <use x="63.623047" xlink:href="#DejaVuSans-46"/>
       <use x="95.410156" xlink:href="#DejaVuSans-48"/>
       <use x="159.033203" xlink:href="#DejaVuSans-55"/>
       <use x="222.65625" xlink:href="#DejaVuSans-53"/>
      </g>
     </g>
    </g>
    <g id="xtick_5">
     <g id="line2d_5">
      <g>
       <use style="stroke:#000000;stroke-width:0.8;" x="265.180672" xlink:href="#m7447502ec6" y="307.584"/>
      </g>
     </g>
     <g id="text_5">
      <!-- 0.100 -->
      <defs>
       <path d="M 12.40625 8.296875 
L 28.515625 8.296875 
L 28.515625 63.921875 
L 10.984375 60.40625 
L 10.984375 69.390625 
L 28.421875 72.90625 
L 38.28125 72.90625 
L 38.28125 8.296875 
L 54.390625 8.296875 
L 54.390625 0 
L 12.40625 0 
z
" id="DejaVuSans-49"/>
      </defs>
      <g transform="translate(250.866609 322.182437)scale(0.1 -0.1)">
       <use xlink:href="#DejaVuSans-48"/>
       <use x="63.623047" xlink:href="#DejaVuSans-46"/>
       <use x="95.410156" xlink:href="#DejaVuSans-49"/>
       <use x="159.033203" xlink:href="#DejaVuSans-48"/>
       <use x="222.65625" xlink:href="#DejaVuSans-48"/>
      </g>
     </g>
    </g>
    <g id="xtick_6">
     <g id="line2d_6">
      <g>
       <use style="stroke:#000000;stroke-width:0.8;" x="313.017658" xlink:href="#m7447502ec6" y="307.584"/>
      </g>
     </g>
     <g id="text_6">
      <!-- 0.125 -->
      <g transform="translate(298.703595 322.182437)scale(0.1 -0.1)">
       <use xlink:href="#DejaVuSans-48"/>
       <use x="63.623047" xlink:href="#DejaVuSans-46"/>
       <use x="95.410156" xlink:href="#DejaVuSans-49"/>
       <use x="159.033203" xlink:href="#DejaVuSans-50"/>
       <use x="222.65625" xlink:href="#DejaVuSans-53"/>
      </g>
     </g>
    </g>
    <g id="xtick_7">
     <g id="line2d_7">
      <g>
       <use style="stroke:#000000;stroke-width:0.8;" x="360.854644" xlink:href="#m7447502ec6" y="307.584"/>
      </g>
     </g>
     <g id="text_7">
      <!-- 0.150 -->
      <g transform="translate(346.540581 322.182437)scale(0.1 -0.1)">
       <use xlink:href="#DejaVuSans-48"/>
       <use x="63.623047" xlink:href="#DejaVuSans-46"/>
       <use x="95.410156" xlink:href="#DejaVuSans-49"/>
       <use x="159.033203" xlink:href="#DejaVuSans-53"/>
       <use x="222.65625" xlink:href="#DejaVuSans-48"/>
      </g>
     </g>
    </g>
    <g id="xtick_8">
     <g id="line2d_8">
      <g>
       <use style="stroke:#000000;stroke-width:0.8;" x="408.69163" xlink:href="#m7447502ec6" y="307.584"/>
      </g>
     </g>
     <g id="text_8">
      <!-- 0.175 -->
      <g transform="translate(394.377567 322.182437)scale(0.1 -0.1)">
       <use xlink:href="#DejaVuSans-48"/>
       <use x="63.623047" xlink:href="#DejaVuSans-46"/>
       <use x="95.410156" xlink:href="#DejaVuSans-49"/>
       <use x="159.033203" xlink:href="#DejaVuSans-55"/>
       <use x="222.65625" xlink:href="#DejaVuSans-53"/>
      </g>
     </g>
    </g>
    <g id="text_9">
     <!-- time (ms) -->
     <defs>
      <path d="M 10.796875 46.6875 
L 2.875 46.6875 
L 2.875 51.90625 
L 10.796875 51.90625 
L 10.796875 68.015625 
L 19.828125 68.015625 
L 19.828125 51.90625 
L 36.71875 51.90625 
L 36.71875 46.6875 
L 19.828125 46.6875 
L 19.828125 13.71875 
Q 19.828125 7.125 21.09375 5.265625 
Q 22.359375 3.421875 25.78125 3.421875 
Q 29.296875 3.421875 30.90625 5.484375 
Q 32.515625 7.5625 32.625 12.203125 
L 39.40625 12.203125 
Q 39.015625 5.125 35.546875 1.84375 
Q 32.078125 -1.421875 25 -1.421875 
Q 17.234375 -1.421875 14.015625 2.015625 
Q 10.796875 5.46875 10.796875 13.71875 
z
" id="DejaVuSerif-116"/>
      <path d="M 9.71875 68.015625 
Q 9.71875 70.265625 11.34375 71.921875 
Q 12.984375 73.578125 15.28125 73.578125 
Q 17.53125 73.578125 19.15625 71.921875 
Q 20.796875 70.265625 20.796875 68.015625 
Q 20.796875 65.71875 19.1875 64.109375 
Q 17.578125 62.5 15.28125 62.5 
Q 12.984375 62.5 11.34375 64.109375 
Q 9.71875 65.71875 9.71875 68.015625 
z
M 21.1875 5.171875 
L 29.6875 5.171875 
L 29.6875 0 
L 3.609375 0 
L 3.609375 5.171875 
L 12.203125 5.171875 
L 12.203125 46.6875 
L 3.609375 46.6875 
L 3.609375 51.90625 
L 21.1875 51.90625 
z
" id="DejaVuSerif-105"/>
      <path d="M 51.8125 41.796875 
Q 54.390625 47.515625 58.421875 50.421875 
Q 62.453125 53.328125 67.828125 53.328125 
Q 75.984375 53.328125 79.984375 48.265625 
Q 83.984375 43.21875 83.984375 33.015625 
L 83.984375 5.171875 
L 92.09375 5.171875 
L 92.09375 0 
L 67.1875 0 
L 67.1875 5.171875 
L 75 5.171875 
L 75 31.984375 
Q 75 39.9375 72.65625 43.3125 
Q 70.3125 46.6875 64.890625 46.6875 
Q 58.890625 46.6875 55.734375 42.140625 
Q 52.59375 37.59375 52.59375 28.90625 
L 52.59375 5.171875 
L 60.40625 5.171875 
L 60.40625 0 
L 35.796875 0 
L 35.796875 5.171875 
L 43.609375 5.171875 
L 43.609375 32.328125 
Q 43.609375 40.09375 41.265625 43.390625 
Q 38.921875 46.6875 33.5 46.6875 
Q 27.484375 46.6875 24.328125 42.140625 
Q 21.1875 37.59375 21.1875 28.90625 
L 21.1875 5.171875 
L 29 5.171875 
L 29 0 
L 4.109375 0 
L 4.109375 5.171875 
L 12.203125 5.171875 
L 12.203125 46.78125 
L 3.609375 46.78125 
L 3.609375 51.90625 
L 21.1875 51.90625 
L 21.1875 42.671875 
Q 23.6875 47.859375 27.53125 50.59375 
Q 31.390625 53.328125 36.28125 53.328125 
Q 42.328125 53.328125 46.375 50.3125 
Q 50.4375 47.3125 51.8125 41.796875 
z
" id="DejaVuSerif-109"/>
      <path d="M 54.203125 25 
L 15.484375 25 
L 15.484375 24.609375 
Q 15.484375 14.109375 19.4375 8.765625 
Q 23.390625 3.421875 31.109375 3.421875 
Q 37.015625 3.421875 40.796875 6.515625 
Q 44.578125 9.625 46.09375 15.71875 
L 53.328125 15.71875 
Q 51.171875 7.171875 45.375 2.875 
Q 39.59375 -1.421875 30.171875 -1.421875 
Q 18.796875 -1.421875 11.890625 6.078125 
Q 4.984375 13.578125 4.984375 25.984375 
Q 4.984375 38.28125 11.765625 45.796875 
Q 18.5625 53.328125 29.59375 53.328125 
Q 41.359375 53.328125 47.65625 46.0625 
Q 53.953125 38.8125 54.203125 25 
z
M 43.609375 30.171875 
Q 43.3125 39.265625 39.765625 43.875 
Q 36.234375 48.484375 29.59375 48.484375 
Q 23.390625 48.484375 19.828125 43.84375 
Q 16.265625 39.203125 15.484375 30.171875 
z
" id="DejaVuSerif-101"/>
      <path id="DejaVuSerif-32"/>
      <path d="M 31.890625 -15.578125 
Q 20.015625 -10.25 13.953125 1.296875 
Q 7.90625 12.84375 7.90625 30.171875 
Q 7.90625 47.5625 13.953125 59.109375 
Q 20.015625 70.65625 31.890625 75.984375 
L 31.890625 71.1875 
Q 24.359375 66.015625 21.09375 56.609375 
Q 17.828125 47.21875 17.828125 30.171875 
Q 17.828125 13.1875 21.09375 3.78125 
Q 24.359375 -5.609375 31.890625 -10.796875 
z
" id="DejaVuSerif-40"/>
      <path d="M 5.609375 2.875 
L 5.609375 14.984375 
L 10.796875 14.984375 
Q 10.984375 9.1875 14.421875 6.296875 
Q 17.875 3.421875 24.609375 3.421875 
Q 30.671875 3.421875 33.84375 5.6875 
Q 37.015625 7.953125 37.015625 12.3125 
Q 37.015625 15.71875 34.6875 17.8125 
Q 32.375 19.921875 24.90625 22.3125 
L 18.40625 24.515625 
Q 11.71875 26.65625 8.71875 29.875 
Q 5.71875 33.109375 5.71875 38.09375 
Q 5.71875 45.21875 10.9375 49.265625 
Q 16.15625 53.328125 25.390625 53.328125 
Q 29.5 53.328125 34.03125 52.25 
Q 38.578125 51.171875 43.40625 49.125 
L 43.40625 37.796875 
L 38.234375 37.796875 
Q 38.03125 42.828125 34.703125 45.65625 
Q 31.390625 48.484375 25.6875 48.484375 
Q 20.015625 48.484375 17.109375 46.484375 
Q 14.203125 44.484375 14.203125 40.484375 
Q 14.203125 37.203125 16.40625 35.21875 
Q 18.609375 33.25 25.203125 31.203125 
L 32.328125 29 
Q 39.703125 26.703125 42.9375 23.265625 
Q 46.1875 19.828125 46.1875 14.40625 
Q 46.1875 7.03125 40.546875 2.796875 
Q 34.90625 -1.421875 25 -1.421875 
Q 19.96875 -1.421875 15.1875 -0.34375 
Q 10.40625 0.734375 5.609375 2.875 
z
" id="DejaVuSerif-115"/>
      <path d="M 7.078125 -15.578125 
L 7.078125 -10.796875 
Q 14.59375 -5.609375 17.890625 3.78125 
Q 21.1875 13.1875 21.1875 30.171875 
Q 21.1875 47.21875 17.890625 56.609375 
Q 14.59375 66.015625 7.078125 71.1875 
L 7.078125 75.984375 
Q 19 70.65625 25.046875 59.109375 
Q 31.109375 47.5625 31.109375 30.171875 
Q 31.109375 12.84375 25.046875 1.296875 
Q 19 -10.25 7.078125 -15.578125 
z
" id="DejaVuSerif-41"/>
     </defs>
     <g style="fill:#8b0000;" transform="translate(197.58875 340.419625)scale(0.16 -0.16)">
      <use xlink:href="#DejaVuSerif-116"/>
      <use x="40.185547" xlink:href="#DejaVuSerif-105"/>
      <use x="72.167969" xlink:href="#DejaVuSerif-109"/>
      <use x="166.992188" xlink:href="#DejaVuSerif-101"/>
      <use x="226.171875" xlink:href="#DejaVuSerif-32"/>
      <use x="257.958984" xlink:href="#DejaVuSerif-40"/>
      <use x="296.972656" xlink:href="#DejaVuSerif-109"/>
      <use x="391.796875" xlink:href="#DejaVuSerif-115"/>
      <use x="443.115234" xlink:href="#DejaVuSerif-41"/>
     </g>
    </g>
   </g>
   <g id="matplotlib.axis_2">
    <g id="ytick_1">
     <g id="line2d_9">
      <defs>
       <path d="M 0 0 
L -3.5 0 
" id="mfaba21ba3f" style="stroke:#000000;stroke-width:0.8;"/>
      </defs>
      <g>
       <use style="stroke:#000000;stroke-width:0.8;" x="57.6" xlink:href="#mfaba21ba3f" y="285.908736"/>
      </g>
     </g>
     <g id="text_10">
      <!-- −6 -->
      <defs>
       <path d="M 10.59375 35.5 
L 73.1875 35.5 
L 73.1875 27.203125 
L 10.59375 27.203125 
z
" id="DejaVuSans-8722"/>
       <path d="M 33.015625 40.375 
Q 26.375 40.375 22.484375 35.828125 
Q 18.609375 31.296875 18.609375 23.390625 
Q 18.609375 15.53125 22.484375 10.953125 
Q 26.375 6.390625 33.015625 6.390625 
Q 39.65625 6.390625 43.53125 10.953125 
Q 47.40625 15.53125 47.40625 23.390625 
Q 47.40625 31.296875 43.53125 35.828125 
Q 39.65625 40.375 33.015625 40.375 
z
M 52.59375 71.296875 
L 52.59375 62.3125 
Q 48.875 64.0625 45.09375 64.984375 
Q 41.3125 65.921875 37.59375 65.921875 
Q 27.828125 65.921875 22.671875 59.328125 
Q 17.53125 52.734375 16.796875 39.40625 
Q 19.671875 43.65625 24.015625 45.921875 
Q 28.375 48.1875 33.59375 48.1875 
Q 44.578125 48.1875 50.953125 41.515625 
Q 57.328125 34.859375 57.328125 23.390625 
Q 57.328125 12.15625 50.6875 5.359375 
Q 44.046875 -1.421875 33.015625 -1.421875 
Q 20.359375 -1.421875 13.671875 8.265625 
Q 6.984375 17.96875 6.984375 36.375 
Q 6.984375 53.65625 15.1875 63.9375 
Q 23.390625 74.21875 37.203125 74.21875 
Q 40.921875 74.21875 44.703125 73.484375 
Q 48.484375 72.75 52.59375 71.296875 
z
" id="DejaVuSans-54"/>
      </defs>
      <g transform="translate(35.857813 289.707955)scale(0.1 -0.1)">
       <use xlink:href="#DejaVuSans-8722"/>
       <use x="83.789062" xlink:href="#DejaVuSans-54"/>
      </g>
     </g>
    </g>
    <g id="ytick_2">
     <g id="line2d_10">
      <g>
       <use style="stroke:#000000;stroke-width:0.8;" x="57.6" xlink:href="#mfaba21ba3f" y="248.841872"/>
      </g>
     </g>
     <g id="text_11">
      <!-- −4 -->
      <defs>
       <path d="M 37.796875 64.3125 
L 12.890625 25.390625 
L 37.796875 25.390625 
z
M 35.203125 72.90625 
L 47.609375 72.90625 
L 47.609375 25.390625 
L 58.015625 25.390625 
L 58.015625 17.1875 
L 47.609375 17.1875 
L 47.609375 0 
L 37.796875 0 
L 37.796875 17.1875 
L 4.890625 17.1875 
L 4.890625 26.703125 
z
" id="DejaVuSans-52"/>
      </defs>
      <g transform="translate(35.857813 252.641091)scale(0.1 -0.1)">
       <use xlink:href="#DejaVuSans-8722"/>
       <use x="83.789062" xlink:href="#DejaVuSans-52"/>
      </g>
     </g>
    </g>
    <g id="ytick_3">
     <g id="line2d_11">
      <g>
       <use style="stroke:#000000;stroke-width:0.8;" x="57.6" xlink:href="#mfaba21ba3f" y="211.775009"/>
      </g>
     </g>
     <g id="text_12">
      <!-- −2 -->
      <g transform="translate(35.857813 215.574227)scale(0.1 -0.1)">
       <use xlink:href="#DejaVuSans-8722"/>
       <use x="83.789062" xlink:href="#DejaVuSans-50"/>
      </g>
     </g>
    </g>
    <g id="ytick_4">
     <g id="line2d_12">
      <g>
       <use style="stroke:#000000;stroke-width:0.8;" x="57.6" xlink:href="#mfaba21ba3f" y="174.708145"/>
      </g>
     </g>
     <g id="text_13">
      <!-- 0 -->
      <g transform="translate(44.2375 178.507364)scale(0.1 -0.1)">
       <use xlink:href="#DejaVuSans-48"/>
      </g>
     </g>
    </g>
    <g id="ytick_5">
     <g id="line2d_13">
      <g>
       <use style="stroke:#000000;stroke-width:0.8;" x="57.6" xlink:href="#mfaba21ba3f" y="137.641281"/>
      </g>
     </g>
     <g id="text_14">
      <!-- 2 -->
      <g transform="translate(44.2375 141.4405)scale(0.1 -0.1)">
       <use xlink:href="#DejaVuSans-50"/>
      </g>
     </g>
    </g>
    <g id="ytick_6">
     <g id="line2d_14">
      <g>
       <use style="stroke:#000000;stroke-width:0.8;" x="57.6" xlink:href="#mfaba21ba3f" y="100.574417"/>
      </g>
     </g>
     <g id="text_15">
      <!-- 4 -->
      <g transform="translate(44.2375 104.373636)scale(0.1 -0.1)">
       <use xlink:href="#DejaVuSans-52"/>
      </g>
     </g>
    </g>
    <g id="ytick_7">
     <g id="line2d_15">
      <g>
       <use style="stroke:#000000;stroke-width:0.8;" x="57.6" xlink:href="#mfaba21ba3f" y="63.507554"/>
      </g>
     </g>
     <g id="text_16">
      <!-- 6 -->
      <g transform="translate(44.2375 67.306772)scale(0.1 -0.1)">
       <use xlink:href="#DejaVuSans-54"/>
      </g>
     </g>
    </g>
    <g id="text_17">
     <!-- voltage (mV) -->
     <defs>
      <path d="M 24.703125 0 
L 5.609375 46.6875 
L -0.296875 46.6875 
L -0.296875 51.90625 
L 23.578125 51.90625 
L 23.578125 46.6875 
L 15.28125 46.6875 
L 29.890625 10.984375 
L 44.484375 46.6875 
L 36.71875 46.6875 
L 36.71875 51.90625 
L 56.203125 51.90625 
L 56.203125 46.6875 
L 50.390625 46.6875 
L 31.296875 0 
z
" id="DejaVuSerif-118"/>
      <path d="M 30.078125 3.421875 
Q 37.3125 3.421875 40.984375 9.125 
Q 44.671875 14.84375 44.671875 25.984375 
Q 44.671875 37.109375 40.984375 42.796875 
Q 37.3125 48.484375 30.078125 48.484375 
Q 22.859375 48.484375 19.171875 42.796875 
Q 15.484375 37.109375 15.484375 25.984375 
Q 15.484375 14.84375 19.1875 9.125 
Q 22.90625 3.421875 30.078125 3.421875 
z
M 30.078125 -1.421875 
Q 18.75 -1.421875 11.859375 6.078125 
Q 4.984375 13.578125 4.984375 25.984375 
Q 4.984375 38.375 11.84375 45.84375 
Q 18.703125 53.328125 30.078125 53.328125 
Q 41.453125 53.328125 48.3125 45.84375 
Q 55.171875 38.375 55.171875 25.984375 
Q 55.171875 13.578125 48.3125 6.078125 
Q 41.453125 -1.421875 30.078125 -1.421875 
z
" id="DejaVuSerif-111"/>
      <path d="M 20.515625 5.171875 
L 29 5.171875 
L 29 0 
L 2.875 0 
L 2.875 5.171875 
L 11.53125 5.171875 
L 11.53125 70.796875 
L 2.875 70.796875 
L 2.875 75.984375 
L 20.515625 75.984375 
z
" id="DejaVuSerif-108"/>
      <path d="M 39.796875 16.3125 
L 39.796875 27.296875 
L 28.21875 27.296875 
Q 21.53125 27.296875 18.25 24.40625 
Q 14.984375 21.53125 14.984375 15.578125 
Q 14.984375 10.15625 18.296875 6.984375 
Q 21.625 3.8125 27.296875 3.8125 
Q 32.90625 3.8125 36.34375 7.28125 
Q 39.796875 10.75 39.796875 16.3125 
z
M 48.78125 32.421875 
L 48.78125 5.171875 
L 56.78125 5.171875 
L 56.78125 0 
L 39.796875 0 
L 39.796875 5.609375 
Q 36.8125 2 32.90625 0.28125 
Q 29 -1.421875 23.78125 -1.421875 
Q 15.140625 -1.421875 10.0625 3.171875 
Q 4.984375 7.765625 4.984375 15.578125 
Q 4.984375 23.640625 10.796875 28.078125 
Q 16.609375 32.515625 27.203125 32.515625 
L 39.796875 32.515625 
L 39.796875 36.078125 
Q 39.796875 42 36.203125 45.234375 
Q 32.625 48.484375 26.125 48.484375 
Q 20.75 48.484375 17.578125 46.046875 
Q 14.40625 43.609375 13.625 38.8125 
L 8.984375 38.8125 
L 8.984375 49.3125 
Q 13.671875 51.3125 18.09375 52.3125 
Q 22.515625 53.328125 26.703125 53.328125 
Q 37.5 53.328125 43.140625 47.96875 
Q 48.78125 42.625 48.78125 32.421875 
z
" id="DejaVuSerif-97"/>
      <path d="M 52.484375 46.6875 
L 52.484375 1.125 
Q 52.484375 -10.0625 46.328125 -16.140625 
Q 40.1875 -22.21875 28.8125 -22.21875 
Q 23.6875 -22.21875 19 -21.28125 
Q 14.3125 -20.359375 10.015625 -18.5 
L 10.015625 -7.625 
L 14.703125 -7.625 
Q 15.578125 -12.703125 18.84375 -15.046875 
Q 22.125 -17.390625 28.21875 -17.390625 
Q 36.140625 -17.390625 39.8125 -12.921875 
Q 43.5 -8.453125 43.5 1.125 
L 43.5 8.109375 
Q 40.875 3.21875 36.796875 0.890625 
Q 32.71875 -1.421875 26.703125 -1.421875 
Q 17.140625 -1.421875 11.0625 6.171875 
Q 4.984375 13.765625 4.984375 25.984375 
Q 4.984375 38.1875 11.03125 45.75 
Q 17.09375 53.328125 26.703125 53.328125 
Q 32.71875 53.328125 36.796875 51 
Q 40.875 48.6875 43.5 43.796875 
L 43.5 51.90625 
L 61.078125 51.90625 
L 61.078125 46.6875 
z
M 43.5 28.515625 
Q 43.5 37.84375 39.90625 42.765625 
Q 36.328125 47.703125 29.5 47.703125 
Q 22.5625 47.703125 19.015625 42.234375 
Q 15.484375 36.765625 15.484375 25.984375 
Q 15.484375 15.234375 19.015625 9.71875 
Q 22.5625 4.203125 29.5 4.203125 
Q 36.328125 4.203125 39.90625 9.109375 
Q 43.5 14.015625 43.5 23.390625 
z
" id="DejaVuSerif-103"/>
      <path d="M 17.484375 67.671875 
L 39.015625 11.71875 
L 60.5 67.671875 
L 52.296875 67.671875 
L 52.296875 72.90625 
L 73.6875 72.90625 
L 73.6875 67.671875 
L 66.609375 67.671875 
L 40.578125 0 
L 32.171875 0 
L 6.296875 67.671875 
L -0.984375 67.671875 
L -0.984375 72.90625 
L 25.59375 72.90625 
L 25.59375 67.671875 
z
" id="DejaVuSerif-86"/>
     </defs>
     <g style="fill:#8b0000;" transform="translate(28.302812 226.413)rotate(-90)scale(0.16 -0.16)">
      <use xlink:href="#DejaVuSerif-118"/>
      <use x="56.494141" xlink:href="#DejaVuSerif-111"/>
      <use x="116.699219" xlink:href="#DejaVuSerif-108"/>
      <use x="148.681641" xlink:href="#DejaVuSerif-116"/>
      <use x="188.867188" xlink:href="#DejaVuSerif-97"/>
      <use x="248.486328" xlink:href="#DejaVuSerif-103"/>
      <use x="312.5" xlink:href="#DejaVuSerif-101"/>
      <use x="371.679688" xlink:href="#DejaVuSerif-32"/>
      <use x="403.466797" xlink:href="#DejaVuSerif-40"/>
      <use x="442.480469" xlink:href="#DejaVuSerif-109"/>
      <use x="537.304688" xlink:href="#DejaVuSerif-86"/>
      <use x="609.521484" xlink:href="#DejaVuSerif-41"/>
     </g>
    </g>
    <g id="text_18">
     <!-- 1e7 -->
     <defs>
      <path d="M 56.203125 29.59375 
L 56.203125 25.203125 
L 14.890625 25.203125 
Q 15.484375 15.921875 20.484375 11.0625 
Q 25.484375 6.203125 34.421875 6.203125 
Q 39.59375 6.203125 44.453125 7.46875 
Q 49.3125 8.734375 54.109375 11.28125 
L 54.109375 2.78125 
Q 49.265625 0.734375 44.1875 -0.34375 
Q 39.109375 -1.421875 33.890625 -1.421875 
Q 20.796875 -1.421875 13.15625 6.1875 
Q 5.515625 13.8125 5.515625 26.8125 
Q 5.515625 40.234375 12.765625 48.109375 
Q 20.015625 56 32.328125 56 
Q 43.359375 56 49.78125 48.890625 
Q 56.203125 41.796875 56.203125 29.59375 
z
M 47.21875 32.234375 
Q 47.125 39.59375 43.09375 43.984375 
Q 39.0625 48.390625 32.421875 48.390625 
Q 24.90625 48.390625 20.390625 44.140625 
Q 15.875 39.890625 15.1875 32.171875 
z
" id="DejaVuSans-101"/>
     </defs>
     <g transform="translate(57.6 38.472)scale(0.1 -0.1)">
      <use xlink:href="#DejaVuSans-49"/>
      <use x="63.623047" xlink:href="#DejaVuSans-101"/>
      <use x="125.146484" xlink:href="#DejaVuSans-55"/>
     </g>
    </g>
   </g>
   <g id="line2d_16">
    <path clip-path="url(#p77d4c1e5a4)" d="M 73.832727 174.798084 
L 74.157707 174.694089 
L 74.807666 174.72653 
L 75.782604 174.811754 
L 76.107584 174.728636 
L 76.432563 174.815224 
L 76.757543 174.726678 
L 77.732482 174.801672 
L 78.057461 174.727301 
L 79.0324 174.789751 
L 79.357379 174.70512 
L 79.682359 174.781359 
L 80.007338 174.716478 
L 80.982277 174.781715 
L 81.957215 174.75731 
L 82.282195 174.800634 
L 82.607174 174.711703 
L 82.932154 174.772078 
L 83.257133 174.703222 
L 83.582113 174.775251 
L 84.557052 174.729792 
L 85.53199 174.795237 
L 85.85697 174.723298 
L 86.181949 174.783346 
L 86.506929 174.708649 
L 86.831908 174.787943 
L 87.156888 174.728369 
L 87.481867 174.800486 
L 87.806847 174.733469 
L 88.131826 174.805616 
L 88.456806 174.726916 
L 88.781785 174.785125 
L 89.431744 174.766503 
L 90.406683 174.743699 
L 90.731663 174.802354 
L 91.056642 174.705832 
L 91.706601 174.727301 
L 92.35656 174.741505 
L 93.981458 174.799448 
L 94.956396 174.718109 
L 95.281376 174.77786 
L 95.606355 174.719917 
L 96.581294 174.798618 
L 96.906274 174.737798 
L 97.231253 174.793132 
L 97.881212 174.773946 
L 98.206192 174.731393 
L 98.531171 174.809441 
L 98.856151 174.733855 
L 99.18113 174.796097 
L 99.50611 174.722942 
L 99.831089 174.783228 
L 100.156069 174.730296 
L 100.481048 174.798707 
L 100.806028 174.736731 
L 101.455987 174.728517 
L 102.430925 174.788298 
L 103.405864 174.722497 
L 103.730844 174.794644 
L 104.055823 174.72567 
L 104.380803 174.795801 
L 104.705782 174.724069 
L 105.355741 174.729703 
L 106.33068 174.810183 
L 106.655659 174.735397 
L 106.980639 174.809174 
L 107.305618 174.729021 
L 108.280557 174.776615 
L 109.255495 174.737739 
L 109.580475 174.811754 
L 109.905455 174.72914 
L 110.230434 174.798054 
L 110.555414 174.720273 
L 111.530352 174.777534 
L 112.505291 174.744945 
L 112.83027 174.795148 
L 113.15525 174.720155 
L 113.480229 174.778127 
L 113.805209 174.707315 
L 114.130188 174.770002 
L 114.455168 174.718968 
L 114.780147 174.785007 
L 115.105127 174.726441 
L 115.430106 174.795237 
L 115.755086 174.731808 
L 116.080066 174.788209 
L 116.405045 174.720599 
L 116.730025 174.776941 
L 117.055004 174.708026 
L 117.379984 174.78216 
L 118.354922 174.758289 
L 118.679902 174.800397 
L 119.004881 174.708708 
L 119.65484 174.738303 
L 121.279738 174.797728 
L 122.254676 174.72315 
L 122.904636 174.746309 
L 123.229615 176.471401 
L 123.554595 173.669947 
L 123.879574 181.684099 
L 124.204554 177.7355 
L 124.529533 190.078587 
L 124.854513 178.957075 
L 125.179492 182.277258 
L 125.504472 167.750873 
L 125.829451 161.806534 
L 126.154431 164.959975 
L 126.47941 158.651343 
L 126.80439 174.653019 
L 127.129369 166.626294 
L 127.454349 181.42211 
L 127.779328 168.040765 
L 128.104308 164.83036 
L 128.429287 107.447237 
L 128.754267 149.735962 
L 129.079247 97.696783 
L 129.404226 139.960155 
L 129.729206 160.558596 
L 130.054185 219.133137 
L 130.379165 63.894235 
L 130.704144 171.874368 
L 131.029124 111.628142 
L 131.354103 143.266341 
L 131.679083 142.96948 
L 132.004062 211.824767 
L 132.329042 120.626316 
L 132.654021 293.547772 
L 132.979001 89.976616 
L 133.30398 287.590682 
L 133.62896 94.833798 
L 133.953939 292.167046 
L 134.278919 58.815956 
L 134.603898 54.817064 
L 135.253857 159.532882 
L 135.578837 138.527476 
L 135.903817 215.298941 
L 136.228796 161.656339 
L 136.553776 55.33093 
L 136.878755 120.339507 
L 137.203735 282.837317 
L 137.528714 172.149879 
L 137.853694 282.052863 
L 138.178673 114.417527 
L 138.503653 277.44563 
L 138.828632 69.541654 
L 139.153612 270.385697 
L 139.478591 204.719939 
L 139.803571 68.246033 
L 140.12855 166.327861 
L 140.45353 204.864589 
L 140.778509 83.745765 
L 141.103489 283.194167 
L 141.428468 191.868175 
L 141.753448 237.426198 
L 142.078428 59.015554 
L 142.403407 292.20435 
L 142.728387 59.171976 
L 143.053366 291.953482 
L 143.378346 91.853415 
L 143.703325 277.737687 
L 144.028305 128.345801 
L 144.353284 53.568119 
L 144.678264 70.77681 
L 145.003243 161.523669 
L 145.328223 125.928716 
L 145.653202 291.953689 
L 145.978182 58.422603 
L 146.303161 291.34603 
L 146.628141 58.256721 
L 146.95312 292.226086 
L 147.2781 69.785346 
L 147.603079 66.941902 
L 147.928059 149.141617 
L 148.253038 293.548009 
L 148.578018 53.716356 
L 148.902998 159.764594 
L 149.227977 150.095006 
L 149.552957 198.993583 
L 149.877936 94.611664 
L 150.202916 293.082687 
L 150.527895 59.173844 
L 150.852875 291.953482 
L 151.177854 58.171022 
L 151.502834 236.30497 
L 151.827813 175.032109 
L 152.152793 55.315628 
L 152.477772 89.159573 
L 153.127731 200.010223 
L 153.452711 119.758684 
L 153.77769 132.052221 
L 154.10267 291.333576 
L 154.427649 58.25767 
L 154.752629 292.226116 
L 155.077609 67.885358 
L 155.402588 93.215251 
L 155.727568 215.185931 
L 156.052547 253.600635 
L 156.377527 154.22037 
L 156.702506 198.318343 
L 157.027486 99.817779 
L 157.352465 177.650127 
L 157.677445 128.880869 
L 158.002424 287.521797 
L 158.327404 59.171798 
L 158.652383 291.953778 
L 158.977363 67.183104 
L 159.302342 164.769955 
L 159.627322 181.598252 
L 159.952301 80.190459 
L 160.277281 162.994986 
L 160.60226 170.206063 
L 160.92724 55.028316 
L 161.252219 197.384288 
L 161.577199 128.382423 
L 161.902179 279.407475 
L 162.227158 58.256632 
L 162.552138 292.226086 
L 162.877117 58.815986 
L 163.202097 104.655242 
L 163.852056 231.899232 
L 164.177035 105.828808 
L 164.502015 187.297268 
L 164.826994 190.91274 
L 165.151974 53.577193 
L 165.801933 196.771617 
L 166.126912 59.171798 
L 166.451892 291.953541 
L 166.776871 58.096859 
L 167.101851 156.888324 
L 167.42683 173.790814 
L 167.75181 168.486279 
L 168.07679 70.318753 
L 168.401769 224.513259 
L 168.726749 182.890492 
L 169.051728 293.547802 
L 169.376708 109.207735 
L 169.701687 200.563558 
L 170.026667 58.256602 
L 170.351646 292.226146 
L 170.676626 59.65174 
L 171.001605 150.471665 
L 171.651564 167.679289 
L 171.976544 209.02011 
L 172.301523 269.521031 
L 172.626503 54.113328 
L 172.951482 54.541465 
L 173.276462 54.672088 
L 173.601441 273.229526 
L 173.926421 68.923438 
L 174.2514 291.953541 
L 174.57638 57.869269 
L 174.90136 236.08497 
L 175.226339 58.299037 
L 175.551319 208.681497 
L 175.876298 124.759063 
L 176.526257 55.028197 
L 176.851237 279.052019 
L 177.176216 112.592444 
L 177.501196 254.454092 
L 177.826175 82.01836 
L 178.151155 292.225908 
L 178.476134 61.119973 
L 178.801114 255.182916 
L 179.126093 171.009939 
L 179.451073 224.755973 
L 179.776052 122.346099 
L 180.101032 250.967672 
L 180.426011 112.073211 
L 180.750991 53.568 
L 181.075971 54.913053 
L 181.40095 263.986148 
L 181.72593 99.582983 
L 182.050909 291.953482 
L 182.375889 65.153322 
L 182.700868 217.656423 
L 183.025848 73.757609 
L 183.350827 166.353007 
L 184.000786 54.425549 
L 184.325766 55.028405 
L 184.650745 293.426371 
L 184.975725 101.510608 
L 185.300704 232.135422 
L 185.625684 117.556823 
L 185.950663 292.22573 
L 186.275643 76.623411 
L 186.600622 196.88949 
L 186.925602 60.105349 
L 187.250581 136.327661 
L 187.575561 152.237945 
L 187.900541 245.03469 
L 188.22552 54.113446 
L 188.5505 53.568474 
L 188.875479 66.523047 
L 189.200459 232.776234 
L 189.525438 203.932698 
L 189.850418 291.953452 
L 190.175397 103.854331 
L 190.500377 189.948616 
L 190.825356 58.256662 
L 191.150336 106.388429 
L 191.475315 100.60499 
L 191.800295 78.374598 
L 192.125274 172.930715 
L 192.450254 212.450693 
L 192.775233 103.123343 
L 193.100213 231.455467 
L 193.425192 167.052118 
L 193.750172 155.550804 
L 194.075152 62.935627 
L 194.400131 254.671037 
L 194.725111 59.816257 
L 195.05009 282.694357 
L 195.37507 95.302798 
L 195.700049 276.304445 
L 196.025029 133.133387 
L 196.350008 81.55876 
L 196.674988 67.936006 
L 196.999967 258.806602 
L 197.324947 197.943079 
L 197.649926 257.005983 
L 197.974906 70.254316 
L 198.299885 276.479223 
L 198.624865 58.392801 
L 198.949844 291.508383 
L 199.274824 75.72752 
L 199.599803 54.49049 
L 199.924783 110.344946 
L 200.249762 293.183687 
L 200.574742 54.198789 
L 200.899722 244.452622 
L 201.224701 54.113268 
L 201.549681 259.089051 
L 201.87466 58.843475 
L 202.19964 293.082627 
L 202.524619 59.17162 
L 202.849599 291.952948 
L 203.174578 79.051172 
L 203.499558 227.513777 
L 204.149517 53.568623 
L 204.474496 57.54655 
L 205.449435 216.640227 
L 205.774414 116.680592 
L 206.099394 291.346 
L 206.424373 58.257018 
L 206.749353 292.22579 
L 207.074333 62.243336 
L 207.399312 93.777333 
L 207.724292 139.992714 
L 208.049271 293.183568 
L 208.374251 124.712537 
L 209.02421 217.860795 
L 209.349189 116.792475 
L 209.674169 141.015404 
L 209.999148 293.075629 
L 210.324128 59.17331 
L 210.649107 291.954164 
L 210.974087 66.559906 
L 211.299066 162.015176 
L 211.624046 190.993546 
L 211.949025 60.383618 
L 212.274005 134.488996 
L 212.598984 124.238852 
L 212.923964 94.439021 
L 213.248943 166.585194 
L 213.573923 119.386681 
L 213.898903 284.049729 
L 214.223882 58.256454 
L 214.548862 292.226086 
L 214.873841 66.299193 
L 215.84878 272.926052 
L 216.173759 193.780944 
L 216.498739 150.85286 
L 216.823718 54.113179 
L 217.148698 239.612757 
L 217.473677 135.471476 
L 217.798657 282.324311 
L 218.123636 59.171116 
L 218.448616 291.953808 
L 218.773595 57.85969 
L 219.098575 186.536033 
L 219.423554 154.087641 
L 219.748534 59.814033 
L 220.073514 103.549285 
L 220.398493 184.607577 
L 220.723473 198.748497 
L 221.048452 293.183538 
L 221.373432 125.105475 
L 221.698411 191.641 
L 222.023391 58.256662 
L 222.34837 292.226027 
L 222.67335 63.237796 
L 222.998329 140.473516 
L 223.323309 131.828811 
L 223.648288 171.68337 
L 223.973268 112.618331 
L 224.298247 171.453526 
L 224.623227 153.87123 
L 224.948206 53.568267 
L 225.273186 54.671851 
L 225.598165 154.57043 
L 225.923145 55.027367 
L 226.248124 291.953689 
L 226.573104 121.675931 
L 226.898084 291.345556 
L 227.223063 58.256988 
L 227.548043 278.263295 
L 227.873022 58.815808 
L 228.198002 68.328084 
L 228.522981 219.033412 
L 228.847961 293.183538 
L 229.17294 53.716208 
L 229.49792 99.903329 
L 229.822899 54.113239 
L 230.147879 288.908217 
L 230.472858 153.087458 
L 230.797838 293.082657 
L 231.122817 59.175208 
L 231.447797 291.953689 
L 231.772776 57.859513 
L 232.422735 164.206509 
L 232.747715 53.568059 
L 233.072695 54.67194 
L 233.397674 56.373784 
L 233.722654 55.027308 
L 234.047633 263.909642 
L 234.372613 179.251445 
L 234.697592 291.345704 
L 235.022572 58.285218 
L 235.347551 292.226324 
L 235.672531 58.81566 
L 235.99751 92.402686 
L 236.32249 154.734384 
L 236.647469 293.183538 
L 236.972449 53.832153 
L 237.297428 295.488 
L 237.622408 54.113446 
L 237.947387 253.254312 
L 238.272367 191.666028 
L 238.597346 293.082509 
L 238.922326 59.170671 
L 239.247305 291.953927 
L 239.572285 57.85975 
L 239.897265 89.251173 
L 240.222244 168.515784 
L 240.547224 53.568415 
L 240.872203 54.671703 
L 241.197183 62.976904 
L 241.522162 55.0271 
L 241.847142 277.295494 
L 242.172121 152.206572 
L 242.497101 291.345556 
L 242.82208 58.256662 
L 243.14706 242.109196 
L 243.472039 64.943554 
L 243.797019 54.425549 
L 244.121998 250.978288 
L 244.446978 293.06187 
L 244.771957 53.715882 
L 245.096937 202.34849 
L 245.746896 292.224248 
L 246.071876 108.103498 
L 246.396855 293.071774 
L 246.721835 69.738404 
L 247.046814 150.126735 
L 247.371794 160.052233 
L 247.696773 148.52942 
L 248.021753 174.689226 
L 248.346732 179.181433 
L 248.671712 163.369658 
L 248.996691 175.41375 
L 249.321671 170.328324 
L 249.64665 169.757821 
L 249.97163 175.119231 
L 250.296609 168.9355 
L 250.621589 179.17746 
L 250.946568 172.063617 
L 251.271548 178.809994 
L 251.596527 177.208587 
L 251.921507 174.369443 
L 252.246486 179.541545 
L 252.571466 169.727841 
L 252.896446 176.658692 
L 253.221425 170.047743 
L 253.546405 171.733752 
L 253.871384 174.426733 
L 254.196364 169.365535 
L 254.521343 178.698645 
L 254.846323 171.92134 
L 255.171302 178.402881 
L 255.821261 174.506916 
L 256.146241 179.009621 
L 256.47122 170.195299 
L 256.7962 176.597606 
L 257.121179 170.397565 
L 257.771138 174.211152 
L 258.096118 169.670877 
L 258.421097 178.218229 
L 258.746077 171.960779 
L 259.071057 178.252508 
L 259.721016 174.601244 
L 260.045995 178.690994 
L 260.370975 170.485369 
L 260.695954 176.538329 
L 261.020934 170.580438 
L 261.670893 174.188764 
L 261.995872 169.949175 
L 262.320852 178.165594 
L 262.645831 172.089742 
L 262.970811 177.796319 
L 263.29579 176.329628 
L 263.62077 174.28072 
L 263.945749 178.188338 
L 264.270729 170.829676 
L 264.595708 175.822049 
L 264.920688 171.640402 
L 265.245667 171.994139 
L 265.570647 175.278233 
L 265.895627 171.13229 
L 266.220606 177.38968 
L 266.545586 173.887366 
L 267.195545 176.730009 
L 267.520524 172.621399 
L 267.845504 176.107641 
L 268.170483 172.141131 
L 268.820442 174.365321 
L 269.145422 172.08734 
L 269.470401 176.280165 
L 269.795381 173.58834 
L 270.12036 175.654773 
L 270.44534 175.620672 
L 270.770319 173.558657 
L 271.095299 175.692018 
L 271.420278 172.788319 
L 271.745258 173.975437 
L 272.070238 174.007433 
L 272.395217 172.90972 
L 272.720197 175.478602 
L 273.045176 173.45825 
L 273.370156 175.327873 
L 273.695135 174.904955 
L 274.020115 174.057844 
L 274.345094 175.164038 
L 274.670074 173.622886 
L 275.320033 174.556616 
L 275.645012 173.774357 
L 276.294971 175.174031 
L 276.619951 171.7253 
L 276.94493 175.10307 
L 277.26991 171.034522 
L 277.594889 169.608427 
L 277.919869 180.312744 
L 278.244848 165.831165 
L 278.569828 191.212033 
L 278.894808 178.279196 
L 279.219787 179.006745 
L 279.544767 200.548227 
L 279.869746 144.909737 
L 280.194726 194.974883 
L 280.519705 136.544399 
L 280.844685 152.162477 
L 281.169664 180.025846 
L 281.494644 123.546621 
L 281.819623 229.140063 
L 282.144603 155.583778 
L 282.469582 218.560232 
L 282.794562 217.360007 
L 283.119541 155.503032 
L 283.444521 233.054472 
L 283.7695 112.962371 
L 284.09448 182.086289 
L 284.419459 139.902271 
L 284.744439 123.148256 
L 285.069419 203.580919 
L 285.394398 122.869662 
L 285.719378 231.691984 
L 286.044357 178.179916 
L 286.369337 196.914043 
L 286.694316 225.285732 
L 287.019296 142.080794 
L 287.344275 214.656083 
L 287.669255 127.008043 
L 287.994234 163.498681 
L 288.319214 163.342585 
L 288.644193 129.812344 
L 288.969173 207.046641 
L 289.294152 146.355997 
L 289.619132 212.021222 
L 289.944111 190.010088 
L 290.269091 178.259477 
L 290.59407 212.343585 
L 290.91905 145.220951 
L 291.244029 193.437349 
L 291.569009 146.589934 
L 291.893989 158.127989 
L 292.218968 176.30632 
L 292.543948 144.492928 
L 292.868927 200.208042 
L 293.193907 163.360317 
L 293.518886 195.057942 
L 293.843866 191.002234 
L 294.168845 170.17896 
L 294.493825 198.38963 
L 294.818804 153.3004 
L 295.143784 181.027897 
L 295.468763 160.320479 
L 295.793743 159.930239 
L 296.118722 180.611532 
L 296.443702 156.763453 
L 296.768681 191.943436 
L 297.093661 172.021598 
L 297.41864 184.272463 
L 297.74362 187.785512 
L 298.0686 168.176341 
L 298.393579 188.281793 
L 298.718559 160.880811 
L 299.043538 175.215249 
L 299.693497 163.739052 
L 300.018477 180.853742 
L 300.343456 164.934769 
L 300.668436 185.322612 
L 300.993415 175.63882 
L 301.318395 178.567043 
L 301.643374 183.909742 
L 301.968354 168.905579 
L 302.293333 181.883222 
L 302.618313 166.357455 
L 302.943292 173.130876 
L 303.268272 172.466934 
L 303.593251 167.414098 
L 303.918231 179.646964 
L 304.24321 169.826113 
L 304.56819 180.751556 
L 304.89317 176.700504 
L 305.218149 175.753134 
L 305.543129 180.686348 
L 305.868108 170.286987 
L 306.193088 178.184157 
L 306.518067 169.993952 
L 306.843047 172.780727 
L 307.168026 174.294123 
L 307.493006 170.130358 
L 307.817985 178.129713 
L 308.142965 172.543885 
L 308.467944 178.074469 
L 308.792924 176.685291 
L 309.117903 174.576839 
L 309.442883 178.329933 
L 309.767862 171.711511 
L 310.092842 176.214364 
L 310.417821 172.159783 
L 310.742801 173.039869 
L 311.067781 175.001032 
L 311.39276 172.099735 
L 311.71774 177.072477 
L 312.042719 173.830461 
L 312.367699 176.447144 
L 312.692678 176.230051 
L 313.017658 174.180906 
L 313.342637 176.816864 
L 313.667617 172.798816 
L 313.992596 175.260441 
L 314.317576 173.437434 
L 314.642555 173.437256 
L 314.967535 175.143043 
L 315.292514 173.186951 
L 315.617494 176.102452 
L 315.942473 174.486455 
L 316.267453 175.495475 
L 316.592432 175.801528 
L 316.917412 174.152439 
L 317.242391 175.857396 
L 317.567371 173.504658 
L 317.892351 174.818248 
L 318.21733 174.102799 
L 318.54231 173.839476 
L 318.867289 175.093729 
L 319.192269 173.973539 
L 319.517248 175.51469 
L 319.842228 174.767452 
L 320.167207 174.980156 
L 320.492187 175.40945 
L 320.817166 174.226365 
L 321.142146 175.306404 
L 321.467125 174.025966 
L 321.792105 174.644449 
L 322.117084 174.473289 
L 322.442064 174.175924 
L 322.767043 174.964084 
L 323.092023 174.336943 
L 323.417002 175.076945 
L 324.066962 174.7445 
L 324.391941 175.155735 
L 324.716921 174.363512 
L 325.0419 174.962513 
L 325.36688 174.31405 
L 325.691859 174.574467 
L 326.016839 174.600058 
L 326.341818 174.421959 
L 326.666798 174.884287 
L 326.991777 174.610555 
L 327.316757 174.834202 
L 327.641736 174.887964 
L 327.966716 174.581673 
L 328.291695 174.974611 
L 328.616675 174.42706 
L 328.941654 174.790463 
L 329.266634 174.520349 
L 329.916593 174.702244 
L 330.241572 174.569278 
L 330.566552 174.762144 
L 331.216511 174.659424 
L 331.541491 174.869875 
L 331.86647 174.546474 
L 332.19145 174.842505 
L 332.516429 174.515012 
L 332.841409 174.702807 
L 333.491368 174.596381 
L 333.816347 174.71289 
L 334.466306 174.709272 
L 334.791286 174.803629 
L 335.116265 174.603705 
L 335.441245 174.850838 
L 335.766224 174.520705 
L 336.091204 174.766177 
L 336.416183 174.560797 
L 337.066143 174.677543 
L 337.391122 174.619629 
L 338.041081 174.738777 
L 338.366061 174.673569 
L 338.69104 174.828449 
L 339.01602 174.558958 
L 339.340999 174.826462 
L 339.665979 174.508399 
L 339.990958 174.708827 
L 340.315938 174.5785 
L 341.940835 174.758319 
L 342.265815 174.648334 
L 342.590794 174.844788 
L 342.915774 174.518985 
L 343.240753 174.812436 
L 343.565733 174.504248 
L 343.890713 174.71455 
L 344.540672 174.606493 
L 344.865651 174.722112 
L 345.190631 174.652189 
L 345.84059 174.772404 
L 346.165569 174.632262 
L 346.490549 174.86516 
L 346.815528 174.544665 
L 347.140508 174.806357 
L 347.465487 174.521002 
L 347.790467 174.663961 
L 348.440426 174.620222 
L 348.765405 174.727479 
L 349.090385 174.66322 
L 349.740344 174.763389 
L 350.065324 174.616012 
L 350.390303 174.839836 
L 350.715283 174.506353 
L 351.040262 174.804726 
L 351.365242 174.521595 
L 351.690221 174.68629 
L 352.34018 174.588849 
L 352.66516 174.706247 
L 353.315119 174.710932 
L 353.640098 174.791916 
L 353.965078 174.626983 
L 354.290057 174.861869 
L 354.615037 174.515723 
L 354.940016 174.800338 
L 355.264996 174.521595 
L 355.589975 174.677928 
L 356.239934 174.596233 
L 356.564914 174.692221 
L 357.214873 174.730682 
L 357.539853 174.818545 
L 357.864832 174.65035 
L 358.189812 174.842831 
L 358.514791 174.509556 
L 358.839771 174.784799 
L 359.16475 174.497931 
L 359.48973 174.696254 
L 360.139689 174.627428 
L 360.464668 174.728576 
L 360.789648 174.647444 
L 361.439607 174.785185 
L 361.764586 174.627576 
L 362.089566 174.840607 
L 362.414545 174.504722 
L 362.739525 174.791946 
L 363.064505 174.516346 
L 363.389484 174.696224 
L 364.039443 174.606849 
L 364.364423 174.699842 
L 365.014382 174.720451 
L 365.339361 174.772285 
L 365.664341 174.645606 
L 365.98932 174.8404 
L 366.3143 174.521921 
L 366.639279 174.810064 
L 366.964259 174.506086 
L 367.289238 174.684126 
L 367.614218 174.580487 
L 369.239115 174.776911 
L 369.564095 174.632202 
L 369.889075 174.846152 
L 370.214054 174.527881 
L 370.539034 174.815046 
L 370.864013 174.496449 
L 371.188993 174.705535 
L 371.513972 174.587129 
L 373.463849 174.659306 
L 373.788829 174.866732 
L 374.113808 174.544991 
L 374.438788 174.814334 
L 374.763767 174.510356 
L 375.088747 174.702689 
L 375.413726 174.565601 
L 377.038624 174.749512 
L 377.363604 174.63837 
L 377.688583 174.832334 
L 378.013563 174.533071 
L 378.338542 174.82154 
L 378.663522 174.516257 
L 378.988501 174.721815 
L 379.313481 174.562517 
L 381.588337 174.838294 
L 381.913317 174.535799 
L 382.238296 174.803451 
L 382.563276 174.483876 
L 382.888256 174.717723 
L 383.213235 174.55279 
L 384.513153 174.737828 
L 385.163112 174.667193 
L 385.488092 174.841348 
L 385.813071 174.562813 
L 386.138051 174.819494 
L 386.46303 174.505878 
L 386.78801 174.715351 
L 387.112989 174.568269 
L 387.762948 174.691065 
L 388.087928 174.635049 
L 388.737887 174.743907 
L 389.062867 174.670188 
L 389.387846 174.83779 
L 389.712826 174.567113 
L 390.037805 174.828449 
L 390.362785 174.496686 
L 390.687764 174.719977 
L 391.012744 174.54081 
L 391.662703 174.681516 
L 391.987682 174.629148 
L 392.637641 174.72481 
L 392.962621 174.676742 
L 393.2876 174.818693 
L 393.61258 174.549143 
L 393.937559 174.825721 
L 394.262539 174.504188 
L 394.587518 174.735308 
L 394.912498 174.550388 
L 395.562457 174.664228 
L 395.887437 174.632647 
L 396.537396 174.737561 
L 396.862375 174.688159 
L 397.187355 174.814067 
L 397.512334 174.544576 
L 397.837314 174.833016 
L 398.162293 174.486485 
L 398.487273 174.741031 
L 398.487273 174.741031 
" style="fill:none;stroke:#1f77b4;stroke-linecap:square;stroke-width:1.5;"/>
   </g>
   <g id="patch_3">
    <path d="M 57.6 307.584 
L 57.6 41.472 
" style="fill:none;stroke:#000000;stroke-linecap:square;stroke-linejoin:miter;stroke-width:0.8;"/>
   </g>
   <g id="patch_4">
    <path d="M 414.72 307.584 
L 414.72 41.472 
" style="fill:none;stroke:#000000;stroke-linecap:square;stroke-linejoin:miter;stroke-width:0.8;"/>
   </g>
   <g id="patch_5">
    <path d="M 57.6 307.584 
L 414.72 307.584 
" style="fill:none;stroke:#000000;stroke-linecap:square;stroke-linejoin:miter;stroke-width:0.8;"/>
   </g>
   <g id="patch_6">
    <path d="M 57.6 41.472 
L 414.72 41.472 
" style="fill:none;stroke:#000000;stroke-linecap:square;stroke-linejoin:miter;stroke-width:0.8;"/>
   </g>
   <g id="text_19">
    <!-- min: 900 -->
    <defs>
     <path d="M 4.109375 0 
L 4.109375 5.171875 
L 12.203125 5.171875 
L 12.203125 46.6875 
L 3.609375 46.6875 
L 3.609375 51.90625 
L 21.1875 51.90625 
L 21.1875 42.671875 
Q 23.6875 47.953125 27.65625 50.640625 
Q 31.640625 53.328125 36.921875 53.328125 
Q 45.515625 53.328125 49.5625 48.390625 
Q 53.609375 43.453125 53.609375 33.015625 
L 53.609375 5.171875 
L 61.625 5.171875 
L 61.625 0 
L 36.8125 0 
L 36.8125 5.171875 
L 44.578125 5.171875 
L 44.578125 30.171875 
Q 44.578125 39.703125 42.234375 43.234375 
Q 39.890625 46.78125 33.984375 46.78125 
Q 27.734375 46.78125 24.453125 42.203125 
Q 21.1875 37.640625 21.1875 28.90625 
L 21.1875 5.171875 
L 29 5.171875 
L 29 0 
z
" id="DejaVuSerif-110"/>
     <path d="M 10.40625 5.078125 
Q 10.40625 7.8125 12.28125 9.71875 
Q 14.15625 11.625 16.890625 11.625 
Q 19.625 11.625 21.5 9.71875 
Q 23.390625 7.8125 23.390625 5.078125 
Q 23.390625 2.34375 21.53125 0.453125 
Q 19.671875 -1.421875 16.890625 -1.421875 
Q 14.109375 -1.421875 12.25 0.453125 
Q 10.40625 2.34375 10.40625 5.078125 
z
M 10.40625 36.921875 
Q 10.40625 39.65625 12.28125 41.53125 
Q 14.15625 43.40625 16.890625 43.40625 
Q 19.671875 43.40625 21.53125 41.546875 
Q 23.390625 39.703125 23.390625 36.921875 
Q 23.390625 34.125 21.53125 32.265625 
Q 19.671875 30.421875 16.890625 30.421875 
Q 14.15625 30.421875 12.28125 32.296875 
Q 10.40625 34.1875 10.40625 36.921875 
z
" id="DejaVuSerif-58"/>
     <path d="M 46.78125 32.671875 
Q 43.5 29 39.25 27.1875 
Q 35.015625 25.390625 29.6875 25.390625 
Q 18.84375 25.390625 12.5625 31.9375 
Q 6.296875 38.484375 6.296875 49.8125 
Q 6.296875 60.890625 13.109375 67.546875 
Q 19.921875 74.21875 31.296875 74.21875 
Q 43.65625 74.21875 50.265625 65.015625 
Q 56.890625 55.8125 56.890625 38.71875 
Q 56.890625 19.578125 49.015625 9.078125 
Q 41.15625 -1.421875 26.90625 -1.421875 
Q 23.046875 -1.421875 18.796875 -0.6875 
Q 14.546875 0.046875 10.109375 1.515625 
L 10.109375 13.625 
L 15.578125 13.625 
Q 16.21875 8.6875 19.390625 6.046875 
Q 22.5625 3.421875 27.875 3.421875 
Q 37.359375 3.421875 41.984375 10.5625 
Q 46.625 17.71875 46.78125 32.671875 
z
M 30.90625 69.390625 
Q 23.96875 69.390625 20.28125 64.328125 
Q 16.609375 59.28125 16.609375 49.8125 
Q 16.609375 40.328125 20.28125 35.25 
Q 23.96875 30.171875 30.90625 30.171875 
Q 37.84375 30.171875 41.53125 35.078125 
Q 45.21875 39.984375 45.21875 49.21875 
Q 45.21875 58.9375 41.5 64.15625 
Q 37.796875 69.390625 30.90625 69.390625 
z
" id="DejaVuSerif-57"/>
     <path d="M 31.78125 3.421875 
Q 39.265625 3.421875 42.96875 11.625 
Q 46.6875 19.828125 46.6875 36.375 
Q 46.6875 52.984375 42.96875 61.1875 
Q 39.265625 69.390625 31.78125 69.390625 
Q 24.3125 69.390625 20.59375 61.1875 
Q 16.890625 52.984375 16.890625 36.375 
Q 16.890625 19.828125 20.59375 11.625 
Q 24.3125 3.421875 31.78125 3.421875 
z
M 31.78125 -1.421875 
Q 19.921875 -1.421875 13.25 8.53125 
Q 6.59375 18.5 6.59375 36.375 
Q 6.59375 54.296875 13.25 64.25 
Q 19.921875 74.21875 31.78125 74.21875 
Q 43.703125 74.21875 50.34375 64.25 
Q 56.984375 54.296875 56.984375 36.375 
Q 56.984375 18.5 50.34375 8.53125 
Q 43.703125 -1.421875 31.78125 -1.421875 
z
" id="DejaVuSerif-48"/>
    </defs>
    <g transform="translate(287095.749189 163.510054)scale(0.1 -0.1)">
     <use xlink:href="#DejaVuSerif-109"/>
     <use x="94.824219" xlink:href="#DejaVuSerif-105"/>
     <use x="126.806641" xlink:href="#DejaVuSerif-110"/>
     <use x="191.210938" xlink:href="#DejaVuSerif-58"/>
     <use x="224.902344" xlink:href="#DejaVuSerif-32"/>
     <use x="256.689453" xlink:href="#DejaVuSerif-57"/>
     <use x="320.3125" xlink:href="#DejaVuSerif-48"/>
     <use x="383.935547" xlink:href="#DejaVuSerif-48"/>
    </g>
    <!--  max: 1400 -->
    <defs>
     <path d="M 29.109375 31.6875 
L 39.984375 46.6875 
L 33.015625 46.6875 
L 33.015625 51.90625 
L 52.984375 51.90625 
L 52.984375 46.6875 
L 46.09375 46.6875 
L 32.171875 27.484375 
L 48.390625 5.171875 
L 55.171875 5.171875 
L 55.171875 0 
L 31.203125 0 
L 31.203125 5.171875 
L 37.796875 5.171875 
L 26.515625 20.703125 
L 15.1875 5.171875 
L 21.921875 5.171875 
L 21.921875 0 
L 2.203125 0 
L 2.203125 5.171875 
L 9.078125 5.171875 
L 23.390625 24.90625 
L 7.625 46.6875 
L 1.21875 46.6875 
L 1.21875 51.90625 
L 24.421875 51.90625 
L 24.421875 46.6875 
L 18.21875 46.6875 
z
" id="DejaVuSerif-120"/>
     <path d="M 14.203125 0 
L 14.203125 5.171875 
L 26.90625 5.171875 
L 26.90625 65.828125 
L 12.203125 56.296875 
L 12.203125 62.703125 
L 29.984375 74.21875 
L 36.71875 74.21875 
L 36.71875 5.171875 
L 49.421875 5.171875 
L 49.421875 0 
z
" id="DejaVuSerif-49"/>
     <path d="M 34.90625 24.703125 
L 34.90625 63.484375 
L 10.015625 24.703125 
z
M 56.390625 0 
L 23.1875 0 
L 23.1875 5.171875 
L 34.90625 5.171875 
L 34.90625 19.484375 
L 3.078125 19.484375 
L 3.078125 24.8125 
L 35.015625 74.21875 
L 44.671875 74.21875 
L 44.671875 24.703125 
L 58.59375 24.703125 
L 58.59375 19.484375 
L 44.671875 19.484375 
L 44.671875 5.171875 
L 56.390625 5.171875 
z
" id="DejaVuSerif-52"/>
    </defs>
    <g transform="translate(287095.749189 174.707867)scale(0.1 -0.1)">
     <use xlink:href="#DejaVuSerif-32"/>
     <use x="31.787109" xlink:href="#DejaVuSerif-109"/>
     <use x="126.611328" xlink:href="#DejaVuSerif-97"/>
     <use x="186.230469" xlink:href="#DejaVuSerif-120"/>
     <use x="242.626953" xlink:href="#DejaVuSerif-58"/>
     <use x="276.318359" xlink:href="#DejaVuSerif-32"/>
     <use x="308.105469" xlink:href="#DejaVuSerif-49"/>
     <use x="371.728516" xlink:href="#DejaVuSerif-52"/>
     <use x="435.351562" xlink:href="#DejaVuSerif-48"/>
     <use x="498.974609" xlink:href="#DejaVuSerif-48"/>
    </g>
   </g>
   <g id="text_20">
    <!-- Timedomain 093701_setup.h -->
    <defs>
     <path d="M 19.09375 0 
L 19.09375 5.171875 
L 28.421875 5.171875 
L 28.421875 67.09375 
L 6.984375 67.09375 
L 6.984375 55.71875 
L 0.984375 55.71875 
L 0.984375 72.90625 
L 65.71875 72.90625 
L 65.71875 55.71875 
L 59.71875 55.71875 
L 59.71875 67.09375 
L 38.28125 67.09375 
L 38.28125 5.171875 
L 47.609375 5.171875 
L 47.609375 0 
z
" id="DejaVuSerif-84"/>
     <path d="M 52.484375 5.171875 
L 61.078125 5.171875 
L 61.078125 0 
L 43.5 0 
L 43.5 8.109375 
Q 40.875 3.21875 36.796875 0.890625 
Q 32.71875 -1.421875 26.703125 -1.421875 
Q 17.140625 -1.421875 11.0625 6.171875 
Q 4.984375 13.765625 4.984375 25.984375 
Q 4.984375 38.1875 11.03125 45.75 
Q 17.09375 53.328125 26.703125 53.328125 
Q 32.71875 53.328125 36.796875 51 
Q 40.875 48.6875 43.5 43.796875 
L 43.5 70.796875 
L 35.015625 70.796875 
L 35.015625 75.984375 
L 52.484375 75.984375 
z
M 43.5 23.390625 
L 43.5 28.515625 
Q 43.5 37.84375 39.90625 42.765625 
Q 36.328125 47.703125 29.5 47.703125 
Q 22.5625 47.703125 19.015625 42.234375 
Q 15.484375 36.765625 15.484375 25.984375 
Q 15.484375 15.234375 19.015625 9.71875 
Q 22.5625 4.203125 29.5 4.203125 
Q 36.328125 4.203125 39.90625 9.109375 
Q 43.5 14.015625 43.5 23.390625 
z
" id="DejaVuSerif-100"/>
     <path d="M 9.71875 69.828125 
Q 15.4375 71.96875 20.671875 73.09375 
Q 25.921875 74.21875 30.515625 74.21875 
Q 41.21875 74.21875 47.21875 69.59375 
Q 53.21875 64.984375 53.21875 56.78125 
Q 53.21875 50.203125 49.0625 45.78125 
Q 44.921875 41.359375 37.3125 39.796875 
Q 46.296875 38.53125 51.25 33.28125 
Q 56.203125 28.03125 56.203125 19.671875 
Q 56.203125 9.46875 49.34375 4.015625 
Q 42.484375 -1.421875 29.59375 -1.421875 
Q 23.875 -1.421875 18.421875 -0.1875 
Q 12.984375 1.03125 7.625 3.515625 
L 7.625 17.671875 
L 13.09375 17.671875 
Q 13.578125 10.640625 17.828125 7.03125 
Q 22.078125 3.421875 29.78125 3.421875 
Q 37.25 3.421875 41.578125 7.734375 
Q 45.90625 12.0625 45.90625 19.578125 
Q 45.90625 28.171875 41.453125 32.59375 
Q 37.015625 37.015625 28.421875 37.015625 
L 23.78125 37.015625 
L 23.78125 42 
L 26.21875 42 
Q 34.765625 42 39.03125 45.53125 
Q 43.3125 49.078125 43.3125 56.203125 
Q 43.3125 62.59375 39.796875 65.984375 
Q 36.28125 69.390625 29.6875 69.390625 
Q 23.09375 69.390625 19.453125 66.265625 
Q 15.828125 63.140625 15.1875 56.984375 
L 9.71875 56.984375 
z
" id="DejaVuSerif-51"/>
     <path d="M 56.390625 67.921875 
L 27.875 0 
L 20.609375 0 
L 47.796875 64.890625 
L 14.109375 64.890625 
L 14.109375 55.90625 
L 8.40625 55.90625 
L 8.40625 72.90625 
L 56.390625 72.90625 
z
" id="DejaVuSerif-55"/>
     <path d="M 50 -19.671875 
L 50 -23.578125 
L 0 -23.578125 
L 0 -19.671875 
z
" id="DejaVuSerif-95"/>
     <path d="M 35.40625 51.90625 
L 52.203125 51.90625 
L 52.203125 5.171875 
L 60.6875 5.171875 
L 60.6875 0 
L 43.21875 0 
L 43.21875 9.1875 
Q 40.71875 4 36.765625 1.28125 
Q 32.8125 -1.421875 27.59375 -1.421875 
Q 18.953125 -1.421875 14.875 3.484375 
Q 10.796875 8.40625 10.796875 18.890625 
L 10.796875 46.6875 
L 2.6875 46.6875 
L 2.6875 51.90625 
L 19.828125 51.90625 
L 19.828125 21.6875 
Q 19.828125 12.203125 22.140625 8.6875 
Q 24.46875 5.171875 30.421875 5.171875 
Q 36.671875 5.171875 39.9375 9.765625 
Q 43.21875 14.359375 43.21875 23.09375 
L 43.21875 46.6875 
L 35.40625 46.6875 
z
" id="DejaVuSerif-117"/>
     <path d="M 20.515625 28.515625 
L 20.515625 23.390625 
Q 20.515625 14.015625 24.09375 9.109375 
Q 27.6875 4.203125 34.515625 4.203125 
Q 41.40625 4.203125 44.9375 9.71875 
Q 48.484375 15.234375 48.484375 25.984375 
Q 48.484375 36.765625 44.9375 42.234375 
Q 41.40625 47.703125 34.515625 47.703125 
Q 27.6875 47.703125 24.09375 42.765625 
Q 20.515625 37.84375 20.515625 28.515625 
z
M 11.53125 46.6875 
L 2.875 46.6875 
L 2.875 51.90625 
L 20.515625 51.90625 
L 20.515625 43.796875 
Q 23.140625 48.6875 27.21875 51 
Q 31.296875 53.328125 37.3125 53.328125 
Q 46.875 53.328125 52.921875 45.75 
Q 58.984375 38.1875 58.984375 25.984375 
Q 58.984375 13.765625 52.921875 6.171875 
Q 46.875 -1.421875 37.3125 -1.421875 
Q 31.296875 -1.421875 27.21875 0.890625 
Q 23.140625 3.21875 20.515625 8.109375 
L 20.515625 -15.578125 
L 29 -15.578125 
L 29 -20.796875 
L 2.875 -20.796875 
L 2.875 -15.578125 
L 11.53125 -15.578125 
z
" id="DejaVuSerif-112"/>
     <path d="M 9.421875 5.078125 
Q 9.421875 7.8125 11.28125 9.71875 
Q 13.140625 11.625 15.921875 11.625 
Q 18.609375 11.625 20.5 9.71875 
Q 22.40625 7.8125 22.40625 5.078125 
Q 22.40625 2.390625 20.5 0.484375 
Q 18.609375 -1.421875 15.921875 -1.421875 
Q 13.140625 -1.421875 11.28125 0.453125 
Q 9.421875 2.34375 9.421875 5.078125 
z
" id="DejaVuSerif-46"/>
     <path d="M 4.109375 0 
L 4.109375 5.171875 
L 12.203125 5.171875 
L 12.203125 70.796875 
L 3.609375 70.796875 
L 3.609375 75.984375 
L 21.1875 75.984375 
L 21.1875 42.671875 
Q 23.6875 47.953125 27.65625 50.640625 
Q 31.640625 53.328125 36.921875 53.328125 
Q 45.515625 53.328125 49.5625 48.390625 
Q 53.609375 43.453125 53.609375 33.015625 
L 53.609375 5.171875 
L 61.625 5.171875 
L 61.625 0 
L 36.8125 0 
L 36.8125 5.171875 
L 44.578125 5.171875 
L 44.578125 30.171875 
Q 44.578125 39.703125 42.25 43.1875 
Q 39.9375 46.6875 33.984375 46.6875 
Q 27.734375 46.6875 24.453125 42.140625 
Q 21.1875 37.59375 21.1875 28.90625 
L 21.1875 5.171875 
L 29 5.171875 
L 29 0 
z
" id="DejaVuSerif-104"/>
    </defs>
    <g style="fill:#8b0000;" transform="translate(118.8325 35.472)scale(0.16 -0.16)">
     <use xlink:href="#DejaVuSerif-84"/>
     <use x="66.699219" xlink:href="#DejaVuSerif-105"/>
     <use x="98.681641" xlink:href="#DejaVuSerif-109"/>
     <use x="193.505859" xlink:href="#DejaVuSerif-101"/>
     <use x="252.685547" xlink:href="#DejaVuSerif-100"/>
     <use x="316.699219" xlink:href="#DejaVuSerif-111"/>
     <use x="376.904297" xlink:href="#DejaVuSerif-109"/>
     <use x="471.728516" xlink:href="#DejaVuSerif-97"/>
     <use x="531.347656" xlink:href="#DejaVuSerif-105"/>
     <use x="563.330078" xlink:href="#DejaVuSerif-110"/>
     <use x="627.734375" xlink:href="#DejaVuSerif-32"/>
     <use x="659.521484" xlink:href="#DejaVuSerif-48"/>
     <use x="723.144531" xlink:href="#DejaVuSerif-57"/>
     <use x="786.767578" xlink:href="#DejaVuSerif-51"/>
     <use x="850.390625" xlink:href="#DejaVuSerif-55"/>
     <use x="914.013672" xlink:href="#DejaVuSerif-48"/>
     <use x="977.636719" xlink:href="#DejaVuSerif-49"/>
     <use x="1041.259766" xlink:href="#DejaVuSerif-95"/>
     <use x="1091.259766" xlink:href="#DejaVuSerif-115"/>
     <use x="1142.578125" xlink:href="#DejaVuSerif-101"/>
     <use x="1201.757812" xlink:href="#DejaVuSerif-116"/>
     <use x="1241.943359" xlink:href="#DejaVuSerif-117"/>
     <use x="1306.347656" xlink:href="#DejaVuSerif-112"/>
     <use x="1370.361328" xlink:href="#DejaVuSerif-46"/>
     <use x="1402.148438" xlink:href="#DejaVuSerif-104"/>
    </g>
   </g>
  </g>
 </g>
 <defs>
  <clipPath id="p77d4c1e5a4">
   <rect height="266.112" width="357.12" x="57.6" y="41.472"/>
  </clipPath>
 </defs>
</svg>
